<?xml version="1.0" encoding="utf-8"?>
<!-- Generator: Adobe Illustrator 22.0.0, SVG Export Plug-In . SVG Version: 6.00 Build 0)  -->
<svg version="1.1" id="Layer_1" xmlns="http://www.w3.org/2000/svg" xmlns:xlink="http://www.w3.org/1999/xlink" x="0px" y="0px"
	 viewBox="0 0 505.7 103" style="enable-background:new 0 0 505.7 103;" xml:space="preserve">
<style type="text/css">
	.st0{fill:#020405;}
	.st1{fill:#005837;}
</style>
<g>
	<g>
		<g>
			<path class="st0" d="M42,43h1.3c0-1.5,1.4-2.8,3.1-2.8h40.3c0-0.4-0.1-0.9-0.1-1.3H46.4C43.9,38.8,42,40.7,42,43"/>
			<path class="st0" d="M36.8,43h1.3c0-4.2,3.7-7.6,8.2-7.6H86c-0.1-0.4-0.2-0.9-0.3-1.3H46.4C41.1,34,36.8,38,36.8,43"/>
			<path class="st0" d="M31.6,43h1.3c0-6.9,6-12.4,13.4-12.4h38.4c-0.1-0.4-0.3-0.9-0.5-1.3H46.4C38.2,29.2,31.6,35.4,31.6,43"/>
			<path class="st0" d="M26.4,43h1.3c0-9.5,8.3-17.3,18.6-17.3h36.5c-0.2-0.4-0.4-0.9-0.6-1.3H46.4C35.4,24.4,26.4,32.7,26.4,43"/>
			<path class="st0" d="M21.2,43h1.3c0-12.2,10.7-22.1,23.8-22.1h33.9c-0.3-0.4-0.6-0.9-0.9-1.3h-33C32.5,19.5,21.2,30,21.2,43"/>
			<path class="st0" d="M16,43h1.3c0-14.8,13-26.9,29-26.9l30.4,0c-0.4-0.4-0.8-0.9-1.2-1.3l-29.2,0C29.6,14.7,16,27.4,16,43"/>
			<path class="st0" d="M10.8,43h1.3c0-17.5,15.3-31.7,34.2-31.7H72c-0.5-0.5-1.1-0.9-1.6-1.3h-24C26.8,9.9,10.8,24.7,10.8,43"/>
			<path class="st0" d="M5.6,43H7C7,22.8,24.6,6.4,46.4,6.4h18.9c-0.8-0.5-1.6-0.9-2.5-1.3H46.4C23.9,5.1,5.6,22.1,5.6,43"/>
			<path class="st0" d="M0.5,43h1.3c0-22.8,20-41.4,44.6-41.4h6.4c-3-0.7-6.1-1-9.2-1c-1.7,0-3.4,0.1-5,0.3
				C16.9,4.4,0.5,21.9,0.5,43"/>
			<path class="st1" d="M43.7,44.9h-2.1c0,1.3-1.2,2.4-2.7,2.4H0.4c0.1,0.7,0.1,1.4,0.2,2.1h38.3C41.5,49.5,43.7,47.4,43.7,44.9"/>
			<path class="st1" d="M49.1,44.9h-2.7c0,3.8-3.4,6.9-7.6,6.9H1c0.2,0.9,0.4,1.8,0.6,2.7h37.3C44.5,54.5,49.1,50.2,49.1,44.9"/>
			<path class="st1" d="M54.3,44.9h-2.7c0,6.5-5.7,11.8-12.7,11.8H2.2c0.3,0.9,0.6,1.8,0.9,2.7h35.8C47.4,59.4,54.3,52.9,54.3,44.9"
				/>
			<path class="st1" d="M59.8,44.9h-3.2c0,9-7.9,16.3-17.7,16.3h-35c0.5,1.1,1,2.2,1.6,3.2h33.4C50.4,64.5,59.8,55.7,59.8,44.9"/>
			<path class="st1" d="M65,44.9h-3.2c0,11.7-10.3,21.2-22.9,21.2H6.4c0.7,1.1,1.4,2.2,2.1,3.2h30.3C53.3,69.3,65,58.4,65,44.9"/>
			<path class="st1" d="M70.4,44.9h-3.7c0,14.2-12.5,25.7-27.8,25.7c0,0-15.3,0-29.3,0c1,1.3,2.1,2.6,3.3,3.7l26,0
				C56.3,74.4,70.4,61.2,70.4,44.9"/>
			<path class="st1" d="M75.6,44.9h-3.7c0,16.8-14.8,30.5-33,30.5H14.1c1.4,1.3,3,2.6,4.6,3.7h20.2C59.1,79.2,75.6,63.8,75.6,44.9"
				/>
			<path class="st1" d="M81.1,44.9h-4.3c0,19.4-17,35.1-37.9,35.1h-19c2.6,1.7,5.4,3.1,8.4,4.3h10.6C62.2,84.3,81.1,66.6,81.1,44.9"
				/>
			<path class="st1" d="M82,44.9c0,22-19.3,39.9-43.1,39.9h-9c4.3,1.4,8.9,2.2,13.7,2.2c11.9,0,22.7-4.8,30.5-12.6
				c7.6-7.8,12.2-18.2,12.2-29.6H82"/>
		</g>
		<g>
			<path class="st1" d="M427.9,36.9c-2.9,0.7-7.1,1.2-10.5,1.3v0.2c1.4,2.4,2.5,5.6,2.5,9.5c0,13.8-7.5,18.8-18.8,18.8
				c-1.5,0-3.4-0.1-4.8-0.3l-2.2,3c-0.6,0.8-1.5,2.2-1.5,3.3c0,0.9,0.6,1.7,2.5,1.7h15.1c10.3,0,14,5.3,14,12.2
				c0,4.6-1.5,7.9-4.1,10.4c-4.6,4.5-12.9,5.6-19.9,5.6c-5.8,0-12-1-15.3-4.3c-2-1.9-3.2-4.5-3.2-7.9c0-3.6,1.9-7.4,5.1-10.3v-0.1
				c-1.4-0.9-3-2.9-3-6c0-2.5,1.4-4.6,2.7-6.4l2.8-3.7v-0.1c-3.9-2.7-6.6-7.7-6.6-16c0-13.4,7.6-18.3,18.7-18.3
				c4.9,0,8.8,1.6,14.2,1.6c3.8,0,8.9-0.6,11.9-1.3L427.9,36.9z M410,81.3h-15.2c-3.2,2.5-5.1,4.8-5.1,7.7c0,1.8,0.4,3,1.5,4
				c2.2,2.1,6.5,2.3,10.4,2.3c3.2,0,9.5-0.2,12.8-3.4c1.5-1.3,2.2-3.2,2.2-5.6C416.6,84.1,415.1,81.3,410,81.3z M401.4,36.7
				c-6.1,0-10.9,2.3-10.9,11c0,9.5,4.7,11.7,10.9,11.7c6.2,0,10.8-2.2,10.8-11.7C412.2,39,407.5,36.7,401.4,36.7z"/>
			<path class="st1" d="M459.5,37.3c-0.8-0.1-2.2-0.2-3.2-0.2c-5.3,0-9.8,2-13.1,6.6v36.1h-8V30.5h6l1.1,5h0.2c3.6-4.1,7.5-6,13.3-6
				c1.2,0,2.9,0.1,4,0.3L459.5,37.3z"/>
			<path class="st1" d="M136.6,57.6c-4.3,0.1-13,0.3-17.4,2.6c-2.4,1.3-2.9,4.3-2.9,7c-0.1,3.8,2.6,6.7,6.1,6.7
				c5.5,0,9.6-0.7,14.3-3.6L136.6,57.6 M138.5,80l-0.6-2.7h-0.3c-5.5,3.3-10.9,3.9-16.2,3.8c-7-0.2-13.2-5-13.2-13.6
				c0-4.9,1-10.3,6.8-13.2c5.9-2.8,15.6-2.8,21.8-3.1v-8c0-4.6-3.1-6.6-8.8-6.6c-4.5,0-11.4,1.3-15.4,2.6l-0.5-7.6
				c5.7-1.4,9.6-1.8,16.6-1.8c9.3,0,16,3,16,12.2v38H138.5z"/>
			<path class="st1" d="M365.1,57.6c-4.3,0.1-13,0.3-17.4,2.6c-2.4,1.3-2.9,4.3-2.9,7c-0.1,3.8,2.6,6.7,6.1,6.7
				c5.5,0,9.6-0.7,14.3-3.6L365.1,57.6 M367,80l-0.6-2.7h-0.3c-5.5,3.3-10.9,3.9-16.2,3.8c-7-0.2-13.2-5-13.2-13.6
				c0-4.9,1-10.3,6.8-13.2c5.9-2.8,15.6-2.8,21.8-3.1v-8c0-4.6-3.2-6.6-8.8-6.6c-4.5,0-11.4,1.3-15.4,2.6l-0.5-7.6
				c5.7-1.4,9.6-1.8,16.6-1.8c9.3,0,16,3,16,12.2v38H367z"/>
			<path class="st1" d="M185,39.4c-4.2-1.8-7-2.4-11.6-2.4c-8.1,0-12.1,3.7-12.1,18.5c0,13.7,3.1,18.1,10.3,18.1
				c5.4,0,10.8-1.8,13.4-3.4V39.4 M186.9,80l-0.7-2.9h-0.3c-5.2,3-10.3,3.9-14.6,3.9c-12.9,0-18.1-8-18.1-25.4
				c0-18.5,6-25.7,20.3-25.7c4.1,0,8,0.5,11.4,1.9h0.2V4.3h8V80H186.9z"/>
			<path class="st1" d="M229.7,39c-1.4-1.4-3.6-1.9-6.5-1.9c-7.8,0-11.5,2.5-12.2,13h21.5C232.4,44.4,231.8,40.9,229.7,39
				 M240.5,56.4h-29.9c0.2,14.1,5.6,17.1,13.5,17.1c6.1,0,10.3-0.9,14.2-1.8l0.5,7.6c-4,0.8-9.5,1.6-14.7,1.6
				c-14.3,0-21.7-6.9-21.7-25.4c0-18.5,6.3-25.7,20.7-25.7c5.5,0,10,1.3,12.8,4.4c3.1,3.3,4.5,8.4,4.5,16.1V56.4z"/>
			<path class="st1" d="M269,80.9c-14.3,0-21.7-6.9-21.7-25.4c0-18.5,7.4-25.7,21.7-25.7c2.9,0,9.2,0.2,12.5,0.8l-0.5,7.6
				c-3.2-0.5-8.5-1.2-12-1.2c-8.1,0-13.5,3.6-13.5,18.4c0,14.8,5.4,18.1,13.5,18.1c3.5,0,8.8-0.5,12-1.2l0.5,7.6
				C278.2,80.6,272,80.9,269,80.9"/>
			<path class="st1" d="M309,37.1c-8.1,0-13.5,3.6-13.5,18.4c0,14.8,5.4,18.1,13.5,18.1c8.1,0,13.4-3.3,13.4-18.1
				C322.3,40.6,317.1,37.1,309,37.1 M309,80.9c-14.3,0-21.7-7-21.7-25.4c0-18.5,7.4-25.7,21.7-25.7c14.2,0,21.6,7.2,21.6,25.7
				C330.5,74,323.2,80.9,309,80.9z"/>
			<path class="st1" d="M483.8,37.1c-8.1,0-13.5,3.6-13.5,18.4c0,14.8,5.4,18.1,13.5,18.1c8.1,0,13.4-3.3,13.4-18.1
				C497.1,40.6,491.9,37.1,483.8,37.1 M483.8,80.9c-14.3,0-21.7-7-21.7-25.4c0-18.5,7.4-25.7,21.7-25.7c14.2,0,21.6,7.2,21.6,25.7
				C505.3,74,498,80.9,483.8,80.9z"/>
		</g>
	</g>
</g>
</svg>
